<?xml version="1.0" standalone="no"?>
<!DOCTYPE svg PUBLIC "-//W3C//DTD SVG 20010904//EN"
 "http://www.w3.org/TR/2001/REC-SVG-20010904/DTD/svg10.dtd">
<svg version="1.0" xmlns="http://www.w3.org/2000/svg"
 width="1024.000000pt" height="1024.000000pt" viewBox="0 0 1024.000000 1024.000000"
 preserveAspectRatio="xMidYMid meet">

<g transform="translate(0.000000,1024.000000) scale(0.100000,-0.100000)"
fill="#000000" stroke="none">
<path d="M2461 7769 c-174 -34 -326 -194 -351 -370 -13 -90 -13 -2235 0 -2319
28 -180 166 -329 341 -369 24 -6 99 -11 166 -11 l122 0 3 -272 c3 -236 5 -277
20 -305 38 -68 129 -101 198 -70 19 9 184 158 365 331 l330 315 587 1 587 0
74 23 c41 13 95 38 121 56 l47 32 36 -32 c20 -17 57 -41 82 -53 44 -20 63 -21
498 -24 l451 -3 7 -59 c4 -33 24 -109 45 -170 64 -189 176 -349 330 -472 373
-300 914 -316 1306 -39 353 248 514 700 404 1131 -21 83 -69 204 -100 255 -20
32 -20 49 -20 996 -1 530 -5 995 -10 1033 -17 137 -117 284 -236 348 -109 59
-82 58 -1235 58 -677 0 -1076 -4 -1110 -10 -97 -19 -176 -63 -259 -148 l-76
-78 -68 73 c-75 81 -169 135 -265 153 -67 12 -2326 12 -2390 -1z m2417 -247
c27 -14 54 -41 73 -69 l29 -47 0 -1166 0 -1166 -29 -45 c-16 -25 -46 -57 -67
-70 l-39 -24 -636 -5 c-619 -5 -638 -6 -660 -25 -25 -21 -336 -314 -481 -452
-48 -46 -89 -83 -92 -83 -4 0 -6 117 -6 260 0 247 -1 261 -20 280 -19 19 -33
20 -238 20 -210 0 -221 1 -263 23 -24 13 -57 43 -74 66 l-30 43 -3 1156 c-3
1292 -7 1208 68 1276 24 21 54 37 77 41 21 4 43 8 48 10 6 2 525 3 1155 2
l1145 -2 43 -23z m2883 -5 c29 -16 54 -40 74 -72 l30 -48 3 -886 2 -885 -22
21 c-78 70 -263 152 -418 186 -130 28 -351 28 -463 -1 l-77 -19 -277 278
c-179 181 -291 286 -318 299 -48 23 -130 26 -178 6 -19 -7 -139 -123 -292
-282 -143 -148 -308 -318 -367 -379 l-108 -110 0 846 c0 944 -2 913 68 991 75
84 -21 78 1208 78 l1091 0 44 -23z m-1322 -1572 l224 -225 -60 -39 c-157 -101
-290 -251 -370 -416 -41 -85 -93 -259 -93 -311 l0 -24 -392 2 -393 3 -3 180
-2 180 232 241 c128 132 318 329 422 437 104 108 194 197 201 197 6 0 112
-101 234 -225z m579 -724 c67 -30 135 -105 158 -173 37 -113 1 -253 -86 -332
-69 -62 -119 -79 -248 -84 l-113 -5 2 -141 2 -141 -94 0 -94 0 -3 440 c-1 242
0 446 3 453 4 11 47 13 212 10 194 -3 212 -5 261 -27z m467 -97 c43 -69 81
-127 85 -129 3 -2 41 54 85 123 l80 127 109 3 c100 2 108 1 104 -15 -3 -10
-62 -110 -131 -221 -70 -112 -127 -206 -127 -208 0 -2 63 -103 140 -224 77
-121 140 -224 140 -230 0 -6 -42 -10 -107 -10 l-108 0 -45 73 c-24 39 -65 105
-91 145 l-46 72 -81 -129 c-45 -71 -85 -136 -88 -145 -5 -13 -24 -16 -115 -16
-69 0 -109 4 -109 10 0 10 189 316 252 408 l29 43 -22 37 c-13 20 -74 117
-136 215 -63 98 -111 182 -108 188 4 5 52 9 109 9 l103 0 78 -126z"/>
<path d="M2803 6855 c-56 -24 -78 -96 -48 -155 33 -64 -24 -60 908 -60 l849 0
34 34 c28 28 34 41 34 78 0 50 -18 82 -60 103 -42 22 -1667 22 -1717 0z"/>
<path d="M2803 6295 c-62 -27 -82 -126 -36 -177 42 -48 45 -48 675 -48 376 0
607 4 630 10 43 12 75 48 84 95 8 43 -12 83 -55 112 l-34 23 -616 0 c-502 -1
-622 -3 -648 -15z"/>
<path d="M2804 5735 c-104 -53 -72 -202 48 -220 24 -3 225 -5 448 -3 453 3
440 1 475 75 21 44 9 96 -31 134 l-26 24 -441 2 c-379 3 -446 1 -473 -12z"/>
<path d="M6732 4943 l3 -128 70 -3 c125 -5 195 42 195 131 0 94 -47 127 -180
127 l-91 0 3 -127z"/>
<path d="M5092 3520 c-199 -52 -364 -208 -429 -405 -36 -111 -38 -257 -4 -365
80 -262 321 -440 596 -440 178 0 314 57 441 184 93 94 143 186 168 308 20 97
20 149 0 246 -48 234 -240 428 -470 477 -94 20 -214 18 -302 -5z m318 -252
c84 -39 134 -89 177 -175 35 -71 37 -81 37 -167 0 -67 -5 -103 -20 -138 -43
-105 -129 -190 -223 -223 -58 -19 -186 -19 -242 0 -157 56 -252 192 -253 365
0 72 4 94 27 145 50 107 101 158 204 201 80 34 211 31 293 -8z"/>
<path d="M2105 3508 c-3 -7 -4 -274 -3 -593 l3 -580 120 0 120 0 3 193 2 192
131 0 c169 0 249 18 332 73 117 79 170 182 171 332 0 59 -6 107 -17 140 -35
102 -132 196 -240 232 -70 23 -614 33 -622 11z m541 -235 c60 -30 84 -74 84
-148 0 -77 -25 -120 -90 -152 -39 -20 -60 -23 -167 -23 l-123 0 0 176 0 177
129 -5 c102 -4 136 -9 167 -25z"/>
<path d="M3165 3508 c-3 -7 -4 -274 -3 -593 l3 -580 120 0 120 0 0 590 0 590
-118 3 c-88 2 -119 -1 -122 -10z"/>
<path d="M3580 3504 c0 -10 56 -103 124 -208 68 -105 146 -226 173 -270 l50
-78 -194 -299 c-107 -164 -192 -303 -188 -309 4 -6 56 -10 136 -10 l129 0 27
39 c16 21 75 113 133 204 58 91 108 166 112 167 3 0 64 -89 134 -197 70 -109
132 -201 138 -205 17 -12 264 -10 271 2 4 6 -82 145 -190 310 l-196 300 181
276 c105 161 177 281 172 286 -5 5 -68 7 -141 6 l-133 -3 -111 -177 c-62 -97
-115 -177 -118 -177 -4 -1 -58 80 -120 179 l-114 180 -137 0 c-122 0 -138 -2
-138 -16z"/>
<path d="M6055 3508 c-3 -7 -4 -274 -3 -593 l3 -580 120 0 120 0 3 208 2 207
84 0 84 0 38 -67 c111 -201 179 -320 192 -335 13 -15 33 -18 139 -18 94 0 125
3 129 13 3 8 -52 112 -122 231 -102 173 -125 220 -113 226 151 85 216 198 207
364 -5 100 -37 176 -101 240 -101 100 -170 116 -515 116 -201 0 -264 -3 -267
-12z m555 -238 c78 -43 103 -135 57 -214 -37 -65 -79 -80 -234 -84 l-133 -4 0
167 0 167 133 -4 c117 -3 137 -6 177 -28z"/>
<path d="M7506 3511 c-6 -10 -97 -245 -191 -496 -35 -93 -107 -282 -159 -420
-52 -137 -92 -253 -87 -258 4 -4 63 -6 131 -5 l122 3 43 120 42 120 232 3 232
2 16 -37 c9 -21 30 -76 47 -123 l32 -85 119 -3 c65 -1 122 1 127 6 8 8 -44
150 -349 957 -41 110 -80 206 -85 213 -12 14 -263 18 -272 3z m206 -483 c36
-101 69 -193 73 -205 l6 -23 -151 0 c-126 0 -151 2 -147 14 3 7 36 100 74 205
37 105 70 191 73 191 3 0 36 -82 72 -182z"/>
</g>
</svg>
